<?xml version="1.0" encoding="UTF-8"?>
<svg width="241.99" height="239.2" version="1.1" viewBox="0 0 241.99 239.2" xmlns="http://www.w3.org/2000/svg" xmlns:cc="http://creativecommons.org/ns#" xmlns:dc="http://purl.org/dc/elements/1.1/" xmlns:rdf="http://www.w3.org/1999/02/22-rdf-syntax-ns#">
 <metadata>
  <rdf:RDF>
   <cc:Work rdf:about="">
    <dc:format>image/svg+xml</dc:format>
    <dc:type rdf:resource="http://purl.org/dc/dcmitype/StillImage"/>
    <dc:title/>
   </cc:Work>
  </rdf:RDF>
 </metadata>
 <g transform="translate(-42.756 53.252)">
  <path d="m51.729 175.76c-3.6239-4.3307-4.617-11.442-4.617-33.06 0-28.477 1.86-34.634 10.463-34.634 4.6685 0 7.0138 2.9652 7.946 10.046 0.45677 3.4698 0.19796 4.8144-1.0688 5.5529-2.1707 1.2655-3.475-0.0322-3.475-3.4572 0-3.513-2.3768-6.5142-4.6355-5.8534-3.276 0.95849-4.2551 7.1552-4.2703 27.028-0.01799 23.383 0.54822 28.191 3.5661 30.28 2.8983 2.0063 4.9526-0.26866 5.8504-6.4786 0.43547-3.0122 1.2424-4.4134 2.5416-4.4134 3.1215 0 2.5154 8.3372-0.99367 13.668-3.4746 5.2789-7.5926 5.7602-11.307 1.3215zm209.52 0.44497c-2.9905-3.6807-3.9782-11.813-3.9782-32.752 0-29.028 1.8686-35.387 10.398-35.387 3.4416 0 4.6803 0.77611 6.3327 3.9676 2.1407 4.1347 2.7787 10.926 1.0631 11.317-2.8794 0.65616-3.4264 0.22675-3.9425-3.095-1.2315-7.9257-6.6181-7.9257-8.0779 0-0.87395 4.7451-1.0465 38.758-0.22813 44.974 0.41073 3.1201 1.5069 5.4381 3.0899 6.5339 3.9141 2.7094 6.1851-2.7704 6.1851-14.924 0-9.2586-0.0934-9.6211-2.4779-9.6211-1.8171 0-2.4779-0.80311-2.4779-3.0117 0-2.6101 0.66077-3.0116 4.9558-3.0116h4.9558v18.07c0 15.223-0.23914 18.07-1.5178 18.07-0.83483 0-1.7731-1.0104-2.085-2.2454-0.47891-1.896-0.95744-1.7789-3.076 0.75291-3.0947 3.6983-6.3051 3.8262-9.1188 0.36308zm-184.42-0.0727c0-1.2043 6.4291-54.63 7.5114-62.419 0.48899-3.5193 1.0738-4.141 3.8954-4.141 3.2122 0 3.3539 0.25689 4.3611 7.9056 1.9047 14.464 7.0288 57.105 7.0288 58.491 0 0.75108-1.0796 1.3656-2.3992 1.3656-1.8773 0-2.5241-0.98258-2.9735-4.5175-1.8789-14.779-1.3326-13.552-6.0377-13.552-4.7006 0-4.7688 0.13386-5.9497 11.67-0.5615 5.4853-0.99674 6.3998-3.0459 6.3998-1.3149 0-2.3908-0.54093-2.3908-1.2021zm14.864-24.773c-0.0045-2.6701-3.0576-28.869-3.4302-29.435-0.28632-0.43502-1.5318 9.5658-3.103 24.917l-0.65504 6.3998h3.5957c2.2175 0 3.5945-0.72147 3.5926-1.8823zm23.791-4.894v-30.869h-2.9735c-2.3127 0-2.9735-0.66927-2.9735-3.0117 0-2.7754 0.66077-3.0117 8.4249-3.0117 7.7641 0 8.4249 0.23621 8.4249 3.0117 0 2.3424-0.66076 3.0117-2.9735 3.0117h-2.9735v61.739h-4.9558zm23.788-3.0116v-33.881h7.9293c7.2685 0 7.9293 0.25097 7.9293 3.0117 0 2.6466-0.66077 3.0117-5.4514 3.0117h-5.4514v24.093h4.9558c4.295 0 4.9558 0.40156 4.9558 3.0117 0 2.6101-0.66078 3.0117-4.9558 3.0117h-4.9558v25.599h5.4514c4.7906 0 5.4514 0.36504 5.4514 3.0117 0 2.7607-0.66077 3.0117-7.9293 3.0117h-7.9293zm29.735 0v-33.881h6.4425c9.8301 0 11.957 4.5451 11.233 24.004-0.27058 7.2752-0.92358 11.309-2.1692 13.4-1.718 2.8842-1.7042 3.4136 0.38415 14.721 1.1914 6.4509 2.402 12.662 2.6901 13.803 0.38395 1.5201-0.22019 1.9415-2.2617 1.5776-2.9496-0.52571-2.9125-0.42147-5.9318-16.684-1.2448-6.7044-2.039-8.6585-3.5195-8.6585-1.7386 0-1.912 1.1608-1.912 12.8 0 12.649-0.0292 12.8-2.4779 12.8h-2.4779zm10.903-0.75292c1.5936-2.4211 1.9823-5.0194 1.9823-13.251 0-11.326-0.94048-13.854-5.154-13.854h-2.7753v14.054c0 7.7299 0.29735 14.506 0.66078 15.058 1.2047 1.8302 3.2784 1.0426 5.2862-2.0078zm21.806 0.75292v-33.881h4.9558v67.762h-4.9558zm20.814-0.0999v-33.981l2.5832 0.47648c2.402 0.44306 2.9071 2.0271 7.203 22.588 2.5409 12.161 4.9466 22.608 5.3461 23.215 0.39949 0.60688 0.72633-9.5126 0.72633-22.488v-23.591h4.9558v67.762h-2.852c-2.7997 0-2.9432-0.42103-7.8275-22.964l-4.9755-22.964-0.10182 22.964-0.10182 22.964h-4.9558v-33.981z" stroke-width="1.2217"/>
 </g>
 <g transform="translate(-42.756 53.252)">
  <path d="m105.12 97.36c-3.3795-3.7164-6.1446-8.3073-6.1446-10.202 0-1.8946 8.6104-11.907 19.134-22.251 13.414-13.183 30.51-23.923 37.264-23.923 17.521 0 6.6384 12.628-18.993 38.137-24.229 24.113-25.333 24.757-31.261 18.239zm83.642-31.111c-26.13-27.814-33.078-33.33-40.259-31.964-10.994 2.0915-31.531-15.2-44.784-37.706-8.0257-13.629-8.9721-18.051-6.2016-28.977 1.7981-7.0915 4.9121-13.427 6.9199-14.078 2.0078-0.6514 33.71 28.764 70.449 65.367 66.076 65.832 66.726 66.631 60.095 73.923-3.6869 4.0545-8.4887 7.2997-10.671 7.2116-2.1819-0.08823-18.178-15.287-35.548-33.775zm-8.6871-46.266c-13.159-13.669-6.4313-31.347 14.09-52.302 20.215-20.642 29.53-19.902 10.336 0.82082-8.2242 8.8794-14.953 17.707-14.953 19.618 0 9.6306 9.5527 6.7527 23.811-7.1736 20.709-20.227 25.24-15.585 5.5442 5.6804-14.18 15.31-16.478 23.42-6.6352 23.42 2.2977 0 11.134-6.7944 19.636-15.099 8.5022-8.3043 16.695-13.868 18.207-12.364 1.5114 1.5042-6.4626 11.544-17.72 22.31-23.769 22.732-37.401 30.582-52.316 15.089z" fill="#28696d" stroke-width="3.6142"/>
 </g>
</svg>
